<?xml version="1.0" encoding="UTF-8" standalone="no"?>
<!DOCTYPE svg PUBLIC "-//W3C//DTD SVG 1.1//EN" "http://www.w3.org/Graphics/SVG/1.1/DTD/svg11.dtd">
<!-- Created with Vectornator (http://vectornator.io/) -->
<svg height="100%" stroke-miterlimit="10" style="fill-rule:nonzero;clip-rule:evenodd;stroke-linecap:round;stroke-linejoin:round;" version="1.1" viewBox="0 0 2500 850" width="100%" xml:space="preserve" xmlns="http://www.w3.org/2000/svg" xmlns:vectornator="http://vectornator.io" xmlns:xlink="http://www.w3.org/1999/xlink">
<defs/>
<g id="Layer-2-copy-copy-copy-copy-copy-copy" vectornator:layerName="Layer 2 copy copy copy copy copy copy">
<path d="M381.363 73.7284C381.363 73.7284 380.188 125.751 337.903 123.037C310.092 114.082 326.064 76.2676 289.387 86.3215C257.005 100.672 252 132.02 252 132.02" fill="none" fill-rule="evenodd" opacity="1" stroke="#000000" stroke-linecap="butt" stroke-linejoin="miter" stroke-width="35"/>
<path d="M143.7 177.397C143.7 177.397 139.362 114.902 182.222 104.924C211.564 98.0934 254.415 115.212 254.415 115.212" fill="none" fill-rule="evenodd" opacity="1" stroke="#000000" stroke-linecap="butt" stroke-linejoin="miter" stroke-width="35"/>
<path d="M85.9179 72.2786C85.9179 72.2786 118.563 104.598 150.23 63.4643C157.47 54.0586 170.407 29.2648 203.933 28.2855C283.999 35.33 248.555 123.845 248.555 123.845" fill="none" fill-rule="evenodd" opacity="1" stroke="#000000" stroke-linecap="butt" stroke-linejoin="miter" stroke-width="35"/>
<path d="M252 88.6116L0 752.395C9.29201e-05 752.395 23.9526 838.688 153.517 838.704C206.499 838.71 284.515 820.311 271.331 622.832C267.651 567.713 256.371 458.869 256.371 328.937C256.371 210.344 300.673 198.203 300.673 198.203L252 88.6116Z" fill="#000000" fill-rule="evenodd" opacity="1" stroke="none"/>
<path d="M472.223 176.85C468.166 176.773 464.146 176.828 460.15 176.99C444.166 177.634 429.138 179.706 415.07 183.196C401.002 186.686 388.832 190.16 378.571 193.633C372.299 195.755 366.445 197.727 361.03 199.56C358.962 200.259 348.085 204.09 335.429 208.558C314.941 215.791 295.282 235.702 290.1 261.661C284.918 287.621 276.395 308.095 288.517 392.615C307.022 521.638 318.671 562.399 334.099 620.448C380.347 794.454 340.373 834.658 313.553 837.523C518.464 826.723 504 752.395 504 752.395L481.713 693.7C481.451 692.783 481.226 691.88 480.9 690.918L474.429 671.808L455.234 613.649C463.601 612.088 497.169 606.509 505.629 604.281C514.088 602.054 520.585 600.177 525.145 598.634C561.061 586.48 576.497 575.403 609.299 550.142C631.903 532.734 643.44 507.444 651.226 482.572C659.011 457.699 661.371 430.87 658.29 402.05C655.209 373.231 648.645 343.989 638.613 314.345C628.775 285.271 616.978 261.631 603.192 243.422C589.406 225.214 574.574 211.002 558.731 200.797C542.888 190.592 526.493 183.92 509.54 180.761C496.825 178.393 484.393 177.081 472.223 176.85ZM500.11 260.227C511.62 259.443 522.555 260.533 531.504 264.002C558.307 274.392 591.644 324.81 589.557 362.206C586.623 414.772 567.309 425.322 545.468 428.266C504.29 435.346 502.867 398.144 465.756 395.002C450.847 397.135 444.246 403.186 426.009 425.417C414.743 439.152 409.693 455.895 413.094 469.888C415.516 484.308 430.469 485.743 437.119 493.844C452.212 513.858 445.712 526.157 430.205 540.394C412.311 546.904 404.769 536.794 396.227 530.924C387.958 521.9 384.358 496.534 381.894 466.847C379.928 443.159 381.118 396.948 393.925 353.418C403.819 314.927 426.753 288.433 444.279 277.503C460.148 268.066 480.928 261.534 500.11 260.227Z" fill="#000000" fill-rule="evenodd" opacity="1" stroke="none"/>
</g>
<g id="Layer-1" vectornator:layerName="Layer 1">
<path d="M757.701 346.997C757.701 306.224 757.867 265.699 758.198 225.424C758.53 185.148 758.696 144.458 758.696 103.353L758.696 98.8782L744.276 100.37C736.983 101.033 731.928 97.718 729.11 90.4253C726.293 83.1326 725.713 73.3537 727.37 61.0886C729.359 45.5087 734.663 37.7188 743.281 37.7188L830.297 36.7243C833.612 36.0613 836.844 35.7298 839.993 35.7298C843.142 35.7298 846.54 35.7298 850.186 35.7298C856.153 35.7298 863.114 36.0613 871.07 36.7243C879.026 37.3873 887.23 38.9618 895.683 41.448C904.136 43.9341 912.506 47.4976 920.793 52.1385C929.08 56.7793 936.456 63.1604 942.92 71.2819C949.384 79.4033 954.605 89.4308 958.583 101.364C962.56 113.298 964.549 127.718 964.549 144.624C964.549 161.861 962.809 178.27 959.328 193.849C955.848 209.429 949.881 223.02 941.428 234.622C932.975 246.224 921.705 255.506 907.616 262.467C893.528 269.429 876.042 272.909 855.158 272.909C852.507 272.909 848.777 272.743 843.971 272.412C839.164 272.08 834.441 271.583 829.8 270.92L829.8 294.787L831.291 331.085L831.291 347.991C831.291 353.626 830.463 358.102 828.805 361.416C827.148 364.731 824.91 367.217 822.093 368.875C819.275 370.532 816.126 371.61 812.645 372.107C809.165 372.604 805.601 372.853 801.955 372.853C787.701 372.853 776.762 370.781 769.137 366.637C761.513 362.494 757.701 355.947 757.701 346.997ZM829.302 231.142C830.96 231.473 832.534 231.639 834.026 231.639C835.518 231.639 837.092 231.639 838.75 231.639C858.971 231.639 873.473 224.678 882.258 210.755C891.042 196.833 895.434 178.27 895.434 155.065C895.434 133.187 891.125 117.027 882.506 106.585C873.888 96.1434 863.446 91.254 851.181 91.917L828.308 92.9114C828.308 101.862 828.308 111.723 828.308 122.497C828.308 133.27 828.391 143.961 828.557 154.568C828.722 165.176 828.888 175.452 829.054 185.396C829.22 195.341 829.302 204.126 829.302 211.75L829.302 231.142Z" fill="#000000" fill-rule="evenodd" opacity="1" stroke="none"/>
<path d="M1009.3 372.853C1006.32 372.853 1002.67 372.604 998.361 372.107C994.052 371.61 989.991 370.698 986.179 369.372C982.367 368.046 979.135 366.057 976.483 363.405C973.831 360.753 972.505 357.273 972.505 352.963C972.505 350.643 973.334 345.091 974.991 336.306C976.649 327.522 978.969 316.666 981.953 303.738C984.936 290.81 988.251 276.307 991.897 260.23C995.543 244.153 999.438 227.827 1003.58 211.253C1007.73 194.678 1011.79 178.187 1015.76 161.778C1019.74 145.369 1023.47 130.452 1026.95 117.027C1030.43 103.602 1033.42 91.9999 1035.9 82.221C1038.39 72.4421 1040.29 65.7295 1041.62 62.0831C1044.27 53.7959 1050.16 47.8291 1059.27 44.1828C1068.39 40.5364 1079.24 38.7132 1091.84 38.7132C1104.44 38.7132 1114.63 40.2049 1122.42 43.1883C1130.21 46.1717 1135.93 51.4755 1139.57 59.0997C1139.91 59.4312 1141.07 63.9063 1143.06 72.525C1145.04 81.1436 1147.53 92.1656 1150.51 105.591C1153.5 119.016 1156.9 134.347 1160.71 151.585C1164.52 168.822 1168.33 186.391 1172.14 204.291C1175.96 222.192 1179.77 239.76 1183.58 256.998C1187.39 274.235 1190.71 289.732 1193.52 303.489C1196.34 317.246 1198.66 328.433 1200.49 337.052C1202.31 345.671 1203.22 350.312 1203.22 350.975C1203.22 355.947 1201.81 359.676 1198.99 362.162C1196.18 364.648 1192.78 366.554 1188.8 367.88C1184.82 369.206 1180.6 369.952 1176.12 370.118C1171.65 370.284 1167.75 370.367 1164.44 370.367C1150.85 370.367 1141.56 368.378 1136.59 364.4C1131.62 360.422 1127.97 353.958 1125.65 345.008C1124.66 340.367 1123.75 335.395 1122.92 330.091C1122.09 324.787 1120.85 318.82 1119.19 312.19L1108.25 312.19L1085.87 311.693L1074.93 311.693C1070.63 311.693 1066.4 311.693 1062.26 311.693C1058.11 311.693 1053.89 311.859 1049.58 312.19C1048.25 319.815 1047.01 327.273 1045.85 334.566C1044.69 341.859 1043.28 349.317 1041.62 356.941C1040.96 360.588 1039.38 363.488 1036.9 365.643C1034.41 367.798 1031.59 369.372 1028.44 370.367C1025.29 371.361 1022.06 372.024 1018.75 372.355C1015.43 372.687 1012.28 372.853 1009.3 372.853ZM1111.73 259.981C1108.08 237.772 1103.77 214.982 1098.8 191.612C1093.83 168.242 1089.85 144.624 1086.87 120.756C1081.9 142.635 1077.26 165.839 1072.95 190.369C1068.64 214.899 1064.16 238.103 1059.52 259.981L1111.73 259.981Z" fill="#000000" fill-rule="evenodd" opacity="1" stroke="none"/>
<path d="M1282.28 372.853L1273.83 372.853C1272.17 372.853 1269.93 372.853 1267.11 372.853C1264.3 372.853 1261.4 372.521 1258.41 371.858L1227.58 370.864C1222.94 370.532 1219.05 368.212 1215.9 363.903C1212.75 359.593 1211.34 353.295 1211.67 345.008C1211.67 339.041 1211.92 334.234 1212.42 330.588C1212.92 326.942 1213.75 324.124 1214.91 322.135C1216.07 320.146 1217.72 318.903 1219.88 318.406C1222.03 317.909 1224.93 317.66 1228.58 317.66L1236.53 317.66C1236.53 308.71 1236.62 299.76 1236.78 290.81C1236.95 281.859 1237.03 273.075 1237.03 264.456L1238.03 157.054C1238.03 148.436 1238.11 139.651 1238.28 130.701C1238.44 121.751 1238.52 112.801 1238.52 103.851L1231.07 103.851C1216.15 103.851 1210.51 91.4197 1214.16 66.5582C1215.15 58.6025 1216.89 52.3871 1219.38 47.912C1221.87 43.4369 1225.43 41.0336 1230.07 40.7021L1319.57 37.7188C1322.22 37.7188 1324.54 38.7961 1326.53 40.9508C1328.52 43.1054 1330.1 45.9231 1331.26 49.4037C1332.42 52.8843 1333.25 56.6964 1333.74 60.84C1334.24 64.9836 1334.49 68.7128 1334.49 72.0277C1334.49 78.989 1332.92 85.8673 1329.77 92.6628C1326.62 99.4583 1321.56 102.856 1314.6 102.856L1310.13 102.856C1310.13 111.806 1310.04 120.756 1309.88 129.707C1309.71 138.657 1309.63 147.607 1309.63 156.557L1308.63 264.954C1308.63 273.904 1308.55 282.854 1308.38 291.804C1308.22 300.754 1308.14 309.704 1308.14 318.655L1314.6 318.655C1327.86 318.655 1334.49 325.616 1334.49 339.538C1334.49 342.853 1334.24 346.499 1333.74 350.477C1333.25 354.455 1332.42 358.267 1331.26 361.914C1330.1 365.56 1328.52 368.461 1326.53 370.615C1324.54 372.77 1322.22 373.847 1319.57 373.847L1282.28 372.853Z" fill="#000000" fill-rule="evenodd" opacity="1" stroke="none"/>
<path d="M1415.54 302.246C1418.19 308.213 1422.67 313.599 1428.96 318.406C1435.26 323.212 1443.71 325.616 1454.32 325.616C1464.93 325.616 1473.13 322.467 1478.94 316.168C1484.74 309.87 1487.64 302.412 1487.64 293.793C1487.64 286.5 1484.16 279.953 1477.19 274.152C1470.23 268.351 1461.62 262.467 1451.34 256.501C1441.06 250.534 1429.79 244.07 1417.53 237.109C1405.26 230.147 1393.99 222.026 1383.72 212.744C1373.44 203.463 1364.82 192.606 1357.86 180.176C1350.9 167.745 1347.42 153.076 1347.42 136.171C1347.42 121.585 1350.15 108.16 1355.62 95.8948C1361.09 83.6298 1368.55 73.0222 1378 64.072C1387.44 55.1219 1398.72 48.1606 1411.81 43.1883C1424.9 38.216 1439.07 35.7298 1454.32 35.7298C1471.89 35.7298 1487.31 38.879 1500.56 45.1772C1513.82 51.4755 1524.68 59.1826 1533.13 68.2985C1541.59 77.4144 1547.47 87.1933 1550.79 97.6351C1554.1 108.077 1554.76 117.442 1552.77 125.729L1544.82 156.557C1544.16 159.54 1542.42 162.275 1539.6 164.761C1536.78 167.248 1533.38 169.319 1529.4 170.977C1525.43 172.634 1521.2 173.629 1516.72 173.96C1512.25 174.292 1508.02 173.96 1504.05 172.966C1498.41 171.308 1493.11 168.656 1488.13 165.01C1483.16 161.364 1481.34 157.22 1482.66 152.579L1489.13 125.729C1490.12 121.751 1489.79 117.856 1488.13 114.044C1486.48 110.232 1484.07 106.834 1480.92 103.851C1477.78 100.867 1474.05 98.381 1469.74 96.3921C1465.43 94.4031 1460.79 93.4087 1455.81 93.4087C1445.21 93.4087 1436.26 97.6351 1428.96 106.088C1421.67 114.541 1418.02 125.066 1418.02 137.662C1418.02 148.933 1421.59 158.38 1428.71 166.004C1435.84 173.629 1444.63 180.507 1455.07 186.64C1465.51 192.772 1476.95 198.739 1489.38 204.54C1501.81 210.341 1513.24 217.054 1523.69 224.678C1534.13 232.302 1542.91 241.252 1550.04 251.528C1557.17 261.804 1560.73 274.567 1560.73 289.815C1560.73 303.738 1557.75 316.251 1551.78 327.356C1545.81 338.461 1537.77 347.908 1527.66 355.698C1517.55 363.488 1505.87 369.538 1492.61 373.847C1479.35 378.157 1465.43 380.311 1450.84 380.311C1440.9 380.311 1431.2 379.068 1421.75 376.582C1412.31 374.096 1403.77 370.864 1396.15 366.886C1388.52 362.908 1381.98 358.267 1376.51 352.963C1371.04 347.66 1367.14 342.19 1364.82 336.555L1345.93 291.804C1344.6 288.821 1343.85 285.34 1343.69 281.362C1343.52 277.384 1344.02 273.406 1345.18 269.429C1346.34 265.451 1348.41 261.804 1351.4 258.49C1354.38 255.175 1358.19 252.523 1362.83 250.534C1370.46 247.55 1377.5 247.219 1383.96 249.539C1390.43 251.86 1394.49 254.843 1396.15 258.49L1415.54 302.246Z" fill="#000000" fill-rule="evenodd" opacity="1" stroke="none"/>
<path d="M1612.94 374.842C1606.64 374.842 1601.5 373.35 1597.52 370.367C1593.55 367.383 1590.48 363.654 1588.33 359.179C1586.17 354.704 1584.76 349.731 1584.1 344.262C1583.44 338.792 1583.11 333.571 1583.11 328.599L1583.11 63.0776C1583.11 59.0997 1584.18 55.702 1586.34 52.8843C1588.49 50.0667 1591.14 47.6634 1594.29 45.6745C1597.44 43.6855 1601.01 42.2767 1604.98 41.448C1608.96 40.6193 1612.77 40.2049 1616.42 40.2049C1631.01 40.2049 1641.12 43.6027 1646.75 50.3982C1652.39 57.1937 1655.2 66.5582 1655.2 78.4917C1655.2 111.309 1654.96 148.021 1654.46 188.628C1653.96 229.236 1654.04 270.92 1654.71 313.682L1715.37 313.682C1720.01 313.682 1724.24 316.748 1728.05 322.881C1731.86 329.013 1734.18 335.809 1735.01 343.267C1735.84 350.726 1734.68 357.604 1731.53 363.903C1728.38 370.201 1722.16 373.35 1712.88 373.35C1695.65 373.35 1682.14 373.35 1672.36 373.35C1662.58 373.35 1654.54 373.433 1648.24 373.599C1641.94 373.764 1636.39 373.93 1631.59 374.096C1626.78 374.262 1620.56 374.51 1612.94 374.842Z" fill="#000000" fill-rule="evenodd" opacity="1" stroke="none"/>
<path d="M1754.65 89.9281C1754.65 80.9779 1755.06 73.5194 1755.89 67.5526C1756.72 61.5859 1758.38 56.6964 1760.87 52.8843C1763.35 49.0722 1766.83 46.3374 1771.31 44.68C1775.78 43.0226 1781.67 42.0281 1788.96 41.6966C1799.24 41.3651 1810.51 41.1165 1822.77 40.9508C1835.04 40.785 1846.8 40.7021 1858.07 40.7021C1869.34 40.7021 1879.54 40.6193 1888.65 40.4535C1897.77 40.2878 1904.48 40.2049 1908.79 40.2049C1913.43 40.2049 1917.58 43.0226 1921.22 48.6578C1924.87 54.2931 1926.69 61.2544 1926.69 69.5416C1926.69 75.8398 1925.37 82.0552 1922.71 88.1877C1920.06 94.3203 1914.43 97.3865 1905.81 97.3865C1900.17 97.3865 1890.56 97.4694 1876.97 97.6351C1863.38 97.8009 1847.3 98.5467 1828.74 99.8727C1828.41 110.812 1828.16 123.74 1827.99 138.657C1827.83 153.574 1827.74 167.33 1827.74 179.927C1835.7 179.927 1842.66 179.844 1848.63 179.678C1854.59 179.513 1860.15 179.43 1865.28 179.43C1870.42 179.43 1875.31 179.347 1879.95 179.181C1884.59 179.015 1889.57 178.932 1894.87 178.932C1901.5 178.932 1906.47 181.502 1909.79 186.64C1913.1 191.778 1914.76 197.496 1914.76 203.794C1915.09 210.755 1913.68 217.219 1910.53 223.186C1907.38 229.153 1902.83 231.97 1896.86 231.639C1891.55 231.639 1886.42 231.639 1881.44 231.639C1876.47 231.639 1871.25 231.722 1865.78 231.888C1860.31 232.053 1854.51 232.219 1848.38 232.385C1842.25 232.551 1835.2 232.633 1827.25 232.633C1827.58 245.893 1827.83 259.815 1827.99 274.401C1828.16 288.986 1828.41 302.08 1828.74 313.682L1913.27 313.682C1917.91 313.682 1921.64 316.831 1924.45 323.13C1927.27 329.428 1928.52 336.389 1928.18 344.013C1927.85 351.638 1926.03 358.433 1922.71 364.4C1919.4 370.367 1914.26 373.35 1907.3 373.35C1892.38 373.35 1879.04 373.433 1867.27 373.599C1855.51 373.764 1844.9 373.93 1835.45 374.096C1826 374.262 1817.3 374.427 1809.35 374.593C1801.39 374.759 1793.6 374.842 1785.98 374.842C1780.01 374.842 1774.95 373.847 1770.81 371.858C1766.67 369.869 1763.35 367.3 1760.87 364.151C1758.38 361.002 1756.56 357.77 1755.4 354.455C1754.24 351.14 1753.66 348.323 1753.66 346.002L1753.66 283.848L1754.65 152.082L1754.65 89.9281Z" fill="#000000" fill-rule="evenodd" opacity="1" stroke="none"/>
<path d="M2030.61 255.009C2018.68 255.009 2007.91 253.351 1998.29 250.037C1988.68 246.722 1980.64 241.086 1974.18 233.131C1967.71 225.175 1962.74 214.567 1959.26 201.308C1955.78 188.048 1954.04 171.308 1954.04 151.088C1954.04 148.436 1954.04 144.043 1954.04 137.911C1954.04 131.778 1954.12 124.651 1954.29 116.53C1954.45 108.408 1954.54 99.7069 1954.54 90.4253C1954.54 81.1436 1954.54 71.862 1954.54 62.5803C1954.54 57.2765 1957.93 52.5528 1964.73 48.4092C1971.53 44.2656 1979.73 42.1938 1989.34 42.1938C1993.98 42.1938 1998.62 42.7739 2003.27 43.9341C2007.91 45.0944 2012.13 47.0004 2015.95 49.6523C2019.76 52.3042 2022.82 55.7848 2025.14 60.0942C2027.46 64.4035 2028.62 69.5416 2028.62 75.5083C2028.62 78.1602 2028.46 82.7182 2028.13 89.1822C2027.8 95.6462 2027.38 102.773 2026.88 110.563C2026.39 118.353 2025.89 126.392 2025.39 134.679C2024.9 142.966 2024.65 150.093 2024.65 156.06C2024.65 167.33 2026.3 175.949 2029.62 181.916C2032.93 187.883 2040.72 190.866 2052.99 190.866C2062.6 190.866 2070.47 187.883 2076.61 181.916C2082.74 175.949 2086.63 166.667 2088.29 154.071C2089.29 147.11 2089.78 138.988 2089.78 129.707C2089.78 120.425 2089.54 111.392 2089.04 102.607C2088.54 93.823 2087.96 85.9502 2087.3 78.989C2086.63 72.0277 2086.3 67.3869 2086.3 65.0665C2086.3 60.0942 2087.8 56.1163 2090.78 53.1329C2093.76 50.1495 2097.41 47.7463 2101.72 45.9231C2106.03 44.0999 2110.67 42.9397 2115.64 42.4425C2120.61 41.9452 2124.92 41.6966 2128.57 41.6966C2132.21 41.6966 2136.03 41.9452 2140 42.4425C2143.98 42.9397 2147.55 43.9341 2150.69 45.4258C2153.84 46.9175 2156.5 48.9893 2158.65 51.6412C2160.81 54.2931 2161.88 57.7738 2161.88 62.0831C2161.88 64.4035 2161.63 71.5305 2161.14 83.464C2160.64 95.3976 2160.06 109.237 2159.4 124.983C2158.73 140.729 2158.15 156.64 2157.66 172.717C2157.16 188.794 2156.91 201.971 2156.91 212.247C2156.91 225.175 2157.24 237.523 2157.9 249.291C2158.57 261.059 2158.9 272.08 2158.9 282.357C2158.9 299.925 2155.42 314.925 2148.46 327.356C2141.5 339.787 2132.79 349.98 2122.35 357.936C2111.91 365.891 2100.39 371.775 2087.8 375.587C2075.2 379.4 2063.27 381.306 2051.99 381.306C2035.09 381.306 2021.08 379.151 2009.98 374.842C1998.87 370.532 1990.34 365.063 1984.37 358.433L1957.02 327.107C1953.71 323.13 1952.55 318.157 1953.54 312.19C1954.54 306.224 1956.77 300.423 1960.26 294.787C1963.74 289.152 1967.96 284.346 1972.93 280.368C1977.91 276.39 1982.88 274.401 1987.85 274.401C1991.83 274.401 1995.31 276.058 1998.29 279.373L2023.65 308.71C2028.29 314.345 2033.27 318.82 2038.57 322.135C2043.87 325.45 2049.34 327.107 2054.98 327.107C2079.18 327.107 2091.28 305.561 2091.28 262.467L2091.28 227.164C2088.96 232.136 2085.47 236.363 2080.83 239.843C2076.19 243.324 2071.06 246.224 2065.42 248.545C2059.78 250.865 2053.9 252.523 2047.77 253.517C2041.64 254.512 2035.92 255.009 2030.61 255.009Z" fill="#000000" fill-rule="evenodd" opacity="1" stroke="none"/>
<path d="M2211.61 72.0277C2202.99 72.3592 2195.94 69.4587 2190.47 63.3262C2185 57.1937 2182.27 49.8181 2182.27 41.1994C2182.27 37.8845 2183.01 34.1553 2184.51 30.0117C2186 25.8681 2188.32 22.056 2191.47 18.5753C2194.62 15.0947 2198.59 12.1113 2203.4 9.62518C2208.21 7.13902 2213.93 5.89595 2220.56 5.89595C2232.49 5.89595 2242.02 9.29369 2249.15 16.0892C2256.27 22.8847 2259.84 31.5862 2259.84 42.1938C2259.84 47.4976 2258.35 53.7959 2255.36 61.0886C2252.38 68.3814 2248.48 75.2597 2243.68 81.7237C2238.87 88.1877 2233.32 93.6573 2227.02 98.1324C2220.72 102.607 2214.09 104.845 2207.13 104.845C2202.82 104.845 2199.92 103.685 2198.43 101.364C2196.94 99.044 2196.19 96.7236 2196.19 94.4031C2196.19 88.7678 2198.18 84.4585 2202.16 81.4751C2206.14 78.4917 2209.29 75.3426 2211.61 72.0277Z" fill="#000000" fill-rule="evenodd" opacity="1" stroke="none"/>
<path d="M2354.81 302.246C2357.46 308.213 2361.94 313.599 2368.23 318.406C2374.53 323.212 2382.98 325.616 2393.59 325.616C2404.2 325.616 2412.4 322.467 2418.21 316.168C2424.01 309.87 2426.91 302.412 2426.91 293.793C2426.91 286.5 2423.43 279.953 2416.47 274.152C2409.5 268.351 2400.89 262.467 2390.61 256.501C2380.33 250.534 2369.06 244.07 2356.8 237.109C2344.53 230.147 2333.26 222.026 2322.99 212.744C2312.71 203.463 2304.09 192.606 2297.13 180.176C2290.17 167.745 2286.69 153.076 2286.69 136.171C2286.69 121.585 2289.42 108.16 2294.89 95.8948C2300.36 83.6298 2307.82 73.0222 2317.27 64.072C2326.71 55.1219 2337.99 48.1606 2351.08 43.1883C2364.17 38.216 2378.34 35.7298 2393.59 35.7298C2411.16 35.7298 2426.58 38.879 2439.83 45.1772C2453.09 51.4755 2463.95 59.1826 2472.4 68.2985C2480.86 77.4144 2486.74 87.1933 2490.06 97.6351C2493.37 108.077 2494.03 117.442 2492.04 125.729L2484.09 156.557C2483.43 159.54 2481.69 162.275 2478.87 164.761C2476.05 167.248 2472.65 169.319 2468.67 170.977C2464.7 172.634 2460.47 173.629 2456 173.96C2451.52 174.292 2447.29 173.96 2443.32 172.966C2437.68 171.308 2432.38 168.656 2427.4 165.01C2422.43 161.364 2420.61 157.22 2421.93 152.579L2428.4 125.729C2429.39 121.751 2429.06 117.856 2427.4 114.044C2425.75 110.232 2423.34 106.834 2420.19 103.851C2417.05 100.867 2413.32 98.381 2409.01 96.3921C2404.7 94.4031 2400.06 93.4087 2395.08 93.4087C2384.48 93.4087 2375.53 97.6351 2368.23 106.088C2360.94 114.541 2357.29 125.066 2357.29 137.662C2357.29 148.933 2360.86 158.38 2367.99 166.004C2375.11 173.629 2383.9 180.507 2394.34 186.64C2404.78 192.772 2416.22 198.739 2428.65 204.54C2441.08 210.341 2452.51 217.054 2462.96 224.678C2473.4 232.302 2482.18 241.252 2489.31 251.528C2496.44 261.804 2500 274.567 2500 289.815C2500 303.738 2497.02 316.251 2491.05 327.356C2485.08 338.461 2477.04 347.908 2466.93 355.698C2456.82 363.488 2445.14 369.538 2431.88 373.847C2418.62 378.157 2404.7 380.311 2390.11 380.311C2380.17 380.311 2370.47 379.068 2361.02 376.582C2351.58 374.096 2343.04 370.864 2335.42 366.886C2327.79 362.908 2321.25 358.267 2315.78 352.963C2310.31 347.66 2306.41 342.19 2304.09 336.555L2285.2 291.804C2283.87 288.821 2283.12 285.34 2282.96 281.362C2282.79 277.384 2283.29 273.406 2284.45 269.429C2285.61 265.451 2287.68 261.804 2290.67 258.49C2293.65 255.175 2297.46 252.523 2302.1 250.534C2309.73 247.55 2316.77 247.219 2323.23 249.539C2329.7 251.86 2333.76 254.843 2335.42 258.49L2354.81 302.246Z" fill="#000000" fill-rule="evenodd" opacity="1" stroke="none"/>
<path d="M757.701 816.685C757.701 775.913 757.867 735.388 758.198 695.112C758.53 654.837 758.696 614.147 758.696 573.042L758.696 568.567L744.276 570.059C736.983 570.722 731.928 567.407 729.11 560.114C726.293 552.821 725.713 543.042 727.37 530.777C729.359 515.198 734.663 507.408 743.281 507.408L830.297 506.413C833.612 505.75 836.844 505.419 839.993 505.419C843.142 505.419 846.54 505.419 850.186 505.419C856.153 505.419 863.114 505.75 871.07 506.413C879.026 507.076 887.23 508.651 895.683 511.137C904.136 513.623 912.506 517.186 920.793 521.827C929.08 526.468 936.456 532.849 942.92 540.971C949.384 549.092 954.605 559.12 958.583 571.053C962.56 582.987 964.549 597.406 964.549 614.312C964.549 631.55 962.809 647.958 959.328 663.538C955.848 679.118 949.881 692.709 941.428 704.311C932.975 715.913 921.705 725.195 907.616 732.156C893.528 739.117 876.042 742.598 855.158 742.598C852.507 742.598 848.777 742.432 843.971 742.101C839.164 741.769 834.441 741.272 829.8 740.609L829.8 764.476L831.291 800.774L831.291 817.68C831.291 823.315 830.463 827.79 828.805 831.105C827.148 834.42 824.91 836.906 822.093 838.564C819.275 840.221 816.126 841.298 812.645 841.796C809.165 842.293 805.601 842.542 801.955 842.542C787.701 842.542 776.762 840.47 769.137 836.326C761.513 832.183 757.701 825.636 757.701 816.685ZM829.302 700.831C830.96 701.162 832.534 701.328 834.026 701.328C835.518 701.328 837.092 701.328 838.75 701.328C858.971 701.328 873.473 694.367 882.258 680.444C891.042 666.522 895.434 647.958 895.434 624.754C895.434 602.876 891.125 586.716 882.506 576.274C873.888 565.832 863.446 560.943 851.181 561.606L828.308 562.6C828.308 571.55 828.308 581.412 828.308 592.186C828.308 602.959 828.391 613.649 828.557 624.257C828.722 634.865 828.888 645.141 829.054 655.085C829.22 665.03 829.302 673.814 829.302 681.439L829.302 700.831Z" fill="#000000" fill-rule="evenodd" opacity="1" stroke="none"/>
<path d="M1009.3 842.542C1006.32 842.542 1002.67 842.293 998.361 841.796C994.052 841.298 989.991 840.387 986.179 839.061C982.367 837.735 979.135 835.746 976.483 833.094C973.831 830.442 972.505 826.962 972.505 822.652C972.505 820.332 973.334 814.779 974.991 805.995C976.649 797.211 978.969 786.354 981.953 773.426C984.936 760.498 988.251 745.996 991.897 729.919C995.543 713.841 999.438 697.516 1003.58 680.941C1007.73 664.367 1011.79 647.875 1015.76 631.467C1019.74 615.058 1023.47 600.141 1026.95 586.716C1030.43 573.291 1033.42 561.689 1035.9 551.91C1038.39 542.131 1040.29 535.418 1041.62 531.772C1044.27 523.485 1050.16 517.518 1059.27 513.872C1068.39 510.225 1079.24 508.402 1091.84 508.402C1104.44 508.402 1114.63 509.894 1122.42 512.877C1130.21 515.86 1135.93 521.164 1139.57 528.789C1139.91 529.12 1141.07 533.595 1143.06 542.214C1145.04 550.832 1147.53 561.854 1150.51 575.28C1153.5 588.705 1156.9 604.036 1160.71 621.274C1164.52 638.511 1168.33 656.08 1172.14 673.98C1175.96 691.88 1179.77 709.449 1183.58 726.687C1187.39 743.924 1190.71 759.421 1193.52 773.178C1196.34 786.934 1198.66 798.122 1200.49 806.741C1202.31 815.36 1203.22 820 1203.22 820.663C1203.22 825.636 1201.81 829.365 1198.99 831.851C1196.18 834.337 1192.78 836.243 1188.8 837.569C1184.82 838.895 1180.6 839.641 1176.12 839.807C1171.65 839.972 1167.75 840.055 1164.44 840.055C1150.85 840.055 1141.56 838.066 1136.59 834.089C1131.62 830.111 1127.97 823.647 1125.65 814.697C1124.66 810.056 1123.75 805.083 1122.92 799.78C1122.09 794.476 1120.85 788.509 1119.19 781.879L1108.25 781.879L1085.87 781.382L1074.93 781.382C1070.63 781.382 1066.4 781.382 1062.26 781.382C1058.11 781.382 1053.89 781.548 1049.58 781.879C1048.25 789.504 1047.01 796.962 1045.85 804.255C1044.69 811.547 1043.28 819.006 1041.62 826.63C1040.96 830.276 1039.38 833.177 1036.9 835.332C1034.41 837.486 1031.59 839.061 1028.44 840.055C1025.29 841.05 1022.06 841.713 1018.75 842.044C1015.43 842.376 1012.28 842.542 1009.3 842.542ZM1111.73 729.67C1108.08 707.46 1103.77 684.671 1098.8 661.301C1093.83 637.931 1089.85 614.312 1086.87 590.445C1081.9 612.323 1077.26 635.528 1072.95 660.058C1068.64 684.588 1064.16 707.792 1059.52 729.67L1111.73 729.67Z" fill="#000000" fill-rule="evenodd" opacity="1" stroke="none"/>
<path d="M1224.1 573.042C1224.1 562.766 1224.52 553.484 1225.35 545.197C1226.18 536.91 1228.5 529.783 1232.31 523.816C1236.12 517.849 1241.67 513.291 1248.97 510.142C1256.26 506.993 1266.37 505.419 1279.3 505.419C1305.82 505.419 1328.61 506.662 1347.67 509.148C1366.73 511.634 1382.31 516.523 1394.41 523.816C1406.51 531.109 1415.37 541.302 1421.01 554.396C1426.64 567.49 1429.46 584.81 1429.46 606.357C1429.46 630.555 1423.91 652.268 1412.8 671.494C1401.7 690.72 1387.03 704.808 1368.8 713.759C1375.43 723.703 1381.98 733.399 1388.44 742.847C1394.9 752.294 1400.79 761.161 1406.09 769.449L1431.95 810.719C1432.94 812.045 1433.44 813.868 1433.44 816.188C1433.44 819.503 1432.11 823.067 1429.46 826.879C1426.81 830.691 1423.41 834.171 1419.27 837.321C1415.12 840.47 1410.65 843.039 1405.84 845.028C1401.04 847.017 1396.31 848.011 1391.67 848.011C1385.04 848.011 1379.9 845.525 1376.26 840.553L1352.89 806.244C1343.27 791.99 1334.49 777.736 1326.53 763.482C1318.58 749.228 1310.95 735.471 1303.66 722.212L1293.72 722.212C1293.72 730.499 1293.8 739.615 1293.97 749.559C1294.13 759.504 1294.3 769.117 1294.46 778.399C1294.63 787.68 1294.79 795.885 1294.96 803.012C1295.13 810.139 1295.21 815.028 1295.21 817.68C1295.21 823.315 1294.38 827.79 1292.72 831.105C1291.06 834.42 1288.83 836.906 1286.01 838.564C1283.19 840.221 1280.04 841.298 1276.56 841.796C1273.08 842.293 1269.52 842.542 1265.87 842.542C1237.36 842.542 1223.11 833.923 1223.11 816.685L1223.11 756.023L1224.1 633.704L1224.1 573.042ZM1293.72 563.097C1293.72 571.053 1293.63 580.003 1293.47 589.948C1293.3 599.893 1293.14 610.086 1292.97 620.528C1292.81 630.97 1292.72 641.08 1292.72 650.859C1292.72 660.638 1292.72 669.505 1292.72 677.461L1310.62 677.461C1319.24 677.461 1326.62 675.638 1332.75 671.991C1338.88 668.345 1344.02 663.704 1348.16 658.069C1352.31 652.433 1355.37 645.887 1357.36 638.428C1359.35 630.97 1360.35 623.594 1360.35 616.301C1360.35 599.064 1356.7 585.887 1349.41 576.771C1342.11 567.655 1331.34 563.097 1317.09 563.097L1293.72 563.097Z" fill="#000000" fill-rule="evenodd" opacity="1" stroke="none"/>
<path d="M1460.29 575.031C1457.31 575.031 1454.74 574.037 1452.58 572.048C1450.43 570.059 1448.6 567.407 1447.11 564.092C1445.62 560.777 1444.46 557.048 1443.63 552.904C1442.8 548.761 1442.39 544.534 1442.39 540.225C1442.39 532.601 1443.8 525.971 1446.62 520.336C1449.43 514.7 1453 511.883 1457.31 511.883C1461.28 511.883 1467.42 511.883 1475.7 511.883C1483.99 511.883 1493.27 511.883 1503.55 511.883C1513.82 511.883 1524.68 511.883 1536.12 511.883C1547.55 511.883 1558.41 511.883 1568.69 511.883C1578.96 511.883 1588.24 511.8 1596.53 511.634C1604.82 511.468 1610.95 511.385 1614.93 511.385C1617.58 511.385 1619.9 512.38 1621.89 514.369C1623.88 516.358 1625.54 519.01 1626.86 522.325C1628.19 525.639 1629.18 529.451 1629.85 533.761C1630.51 538.07 1630.84 542.214 1630.84 546.192C1630.84 552.821 1629.51 558.788 1626.86 564.092C1624.21 569.396 1619.73 572.048 1613.44 572.048C1608.8 572.048 1603.91 572.296 1598.77 572.793C1593.63 573.291 1585.76 573.871 1575.15 574.534C1574.49 615.307 1574.4 655.831 1574.9 696.107C1575.4 736.383 1575.65 776.907 1575.65 817.68C1575.65 823.315 1574.9 827.79 1573.41 831.105C1571.92 834.42 1569.68 836.906 1566.7 838.564C1563.71 840.221 1560.15 841.298 1556.01 841.796C1551.86 842.293 1547.3 842.542 1542.33 842.542C1531.72 842.542 1522.61 840.304 1514.98 835.829C1507.36 831.354 1503.55 824.807 1503.55 816.188C1503.55 777.073 1503.88 736.963 1504.54 695.858C1505.21 654.754 1505.21 614.478 1504.54 575.031L1460.29 575.031Z" fill="#000000" fill-rule="evenodd" opacity="1" stroke="none"/>
<path d="M1710.4 842.542L1701.94 842.542C1700.29 842.542 1698.05 842.542 1695.23 842.542C1692.41 842.542 1689.51 842.21 1686.53 841.547L1655.7 840.553C1651.06 840.221 1647.17 837.901 1644.02 833.591C1640.87 829.282 1639.46 822.984 1639.79 814.697C1639.79 808.73 1640.04 803.923 1640.54 800.277C1641.03 796.63 1641.86 793.813 1643.02 791.824C1644.18 789.835 1645.84 788.592 1647.99 788.095C1650.15 787.597 1653.05 787.349 1656.7 787.349L1664.65 787.349C1664.65 778.399 1664.73 769.449 1664.9 760.498C1665.07 751.548 1665.15 742.764 1665.15 734.145L1666.14 626.743C1666.14 618.124 1666.23 609.34 1666.39 600.39C1666.56 591.44 1666.64 582.49 1666.64 573.539L1659.18 573.539C1644.26 573.539 1638.63 561.109 1642.28 536.247C1643.27 528.291 1645.01 522.076 1647.5 517.601C1649.98 513.126 1653.55 510.722 1658.19 510.391L1747.69 507.408C1750.34 507.408 1752.66 508.485 1754.65 510.64C1756.64 512.794 1758.21 515.612 1759.37 519.092C1760.53 522.573 1761.36 526.385 1761.86 530.529C1762.36 534.672 1762.61 538.402 1762.61 541.717C1762.61 548.678 1761.03 555.556 1757.88 562.352C1754.73 569.147 1749.68 572.545 1742.72 572.545L1738.24 572.545C1738.24 581.495 1738.16 590.445 1737.99 599.395C1737.83 608.346 1737.74 617.296 1737.74 626.246L1736.75 734.642C1736.75 743.592 1736.67 752.543 1736.5 761.493C1736.34 770.443 1736.25 779.393 1736.25 788.343L1742.72 788.343C1755.98 788.343 1762.61 795.305 1762.61 809.227C1762.61 812.542 1762.36 816.188 1761.86 820.166C1761.36 824.144 1760.53 827.956 1759.37 831.602C1758.21 835.249 1756.64 838.149 1754.65 840.304C1752.66 842.459 1750.34 843.536 1747.69 843.536L1710.4 842.542Z" fill="#000000" fill-rule="evenodd" opacity="1" stroke="none"/>
<path d="M1780.51 559.617C1780.51 550.667 1780.92 543.208 1781.75 537.241C1782.58 531.275 1784.24 526.385 1786.72 522.573C1789.21 518.761 1792.69 516.026 1797.16 514.369C1801.64 512.711 1807.52 511.717 1814.82 511.385C1825.09 511.054 1836.36 510.805 1848.63 510.64C1860.89 510.474 1872.66 510.391 1883.93 510.391C1895.2 510.391 1905.39 510.308 1914.51 510.142C1923.63 509.977 1930.34 509.894 1934.65 509.894C1939.29 509.894 1943.43 512.711 1947.08 518.347C1950.73 523.982 1952.55 530.943 1952.55 539.23C1952.55 545.529 1951.22 551.744 1948.57 557.877C1945.92 564.009 1940.28 567.075 1931.66 567.075C1926.03 567.075 1916.42 567.158 1902.83 567.324C1889.23 567.49 1873.16 568.236 1854.59 569.561C1854.26 580.501 1854.01 593.429 1853.85 608.346C1853.68 623.262 1853.6 637.019 1853.6 649.616C1861.55 649.616 1868.52 649.533 1874.48 649.367C1880.45 649.201 1886 649.119 1891.14 649.119C1896.28 649.119 1901.17 649.036 1905.81 648.87C1910.45 648.704 1915.42 648.621 1920.73 648.621C1927.36 648.621 1932.33 651.19 1935.64 656.328C1938.96 661.466 1940.61 667.185 1940.61 673.483C1940.95 680.444 1939.54 686.908 1936.39 692.875C1933.24 698.842 1928.68 701.659 1922.71 701.328C1917.41 701.328 1912.27 701.328 1907.3 701.328C1902.33 701.328 1897.11 701.411 1891.64 701.576C1886.17 701.742 1880.37 701.908 1874.23 702.074C1868.1 702.239 1861.06 702.322 1853.1 702.322C1853.43 715.582 1853.68 729.504 1853.85 744.09C1854.01 758.675 1854.26 771.769 1854.59 783.371L1939.12 783.371C1943.76 783.371 1947.49 786.52 1950.31 792.818C1953.13 799.117 1954.37 806.078 1954.04 813.702C1953.71 821.326 1951.89 828.122 1948.57 834.089C1945.26 840.055 1940.12 843.039 1933.16 843.039C1918.24 843.039 1904.9 843.122 1893.13 843.287C1881.36 843.453 1870.75 843.619 1861.31 843.785C1851.86 843.95 1843.16 844.116 1835.2 844.282C1827.25 844.448 1819.46 844.53 1811.83 844.53C1805.86 844.53 1800.81 843.536 1796.67 841.547C1792.52 839.558 1789.21 836.989 1786.72 833.84C1784.24 830.691 1782.41 827.459 1781.25 824.144C1780.09 820.829 1779.51 818.011 1779.51 815.691L1779.51 753.537L1780.51 621.771L1780.51 559.617Z" fill="#000000" fill-rule="evenodd" opacity="1" stroke="none"/>
<path d="M2044.54 771.935C2047.19 777.901 2051.66 783.288 2057.96 788.095C2064.26 792.901 2072.71 795.305 2083.32 795.305C2093.93 795.305 2102.13 792.155 2107.93 785.857C2113.73 779.559 2116.63 772.1 2116.63 763.482C2116.63 756.189 2113.15 749.642 2106.19 743.841C2099.23 738.04 2090.61 732.156 2080.34 726.189C2070.06 720.223 2058.79 713.759 2046.52 706.797C2034.26 699.836 2022.99 691.715 2012.71 682.433C2002.44 673.151 1993.82 662.295 1986.86 649.864C1979.9 637.434 1976.42 622.765 1976.42 605.859C1976.42 591.274 1979.15 577.849 1984.62 565.584C1990.09 553.319 1997.55 542.711 2007 533.761C2016.44 524.811 2027.71 517.849 2040.81 512.877C2053.9 507.905 2068.07 505.419 2083.32 505.419C2100.89 505.419 2116.3 508.568 2129.56 514.866C2142.82 521.164 2153.68 528.871 2162.13 537.987C2170.58 547.103 2176.47 556.882 2179.78 567.324C2183.1 577.766 2183.76 587.13 2181.77 595.418L2173.82 626.246C2173.15 629.229 2171.41 631.964 2168.6 634.45C2165.78 636.936 2162.38 639.008 2158.4 640.666C2154.42 642.323 2150.2 643.317 2145.72 643.649C2141.25 643.98 2137.02 643.649 2133.04 642.655C2127.41 640.997 2122.1 638.345 2117.13 634.699C2112.16 631.052 2110.34 626.909 2111.66 622.268L2118.13 595.418C2119.12 591.44 2118.79 587.545 2117.13 583.733C2115.47 579.92 2113.07 576.523 2109.92 573.539C2106.77 570.556 2103.04 568.07 2098.73 566.081C2094.42 564.092 2089.78 563.097 2084.81 563.097C2074.2 563.097 2065.25 567.324 2057.96 575.777C2050.67 584.23 2047.02 594.755 2047.02 607.351C2047.02 618.622 2050.59 628.069 2057.71 635.693C2064.84 643.317 2073.62 650.196 2084.07 656.328C2094.51 662.461 2105.94 668.428 2118.37 674.229C2130.81 680.03 2142.24 686.742 2152.68 694.367C2163.13 701.991 2171.91 710.941 2179.04 721.217C2186.16 731.493 2189.73 744.255 2189.73 759.504C2189.73 773.426 2186.74 785.94 2180.78 797.045C2174.81 808.15 2166.77 817.597 2156.66 825.387C2146.55 833.177 2134.87 839.227 2121.61 843.536C2108.35 847.845 2094.42 850 2079.84 850C2069.89 850 2060.2 848.757 2050.75 846.271C2041.3 843.785 2032.77 840.553 2025.14 836.575C2017.52 832.597 2010.97 827.956 2005.5 822.652C2000.03 817.348 1996.14 811.879 1993.82 806.244L1974.92 761.493C1973.6 758.509 1972.85 755.029 1972.69 751.051C1972.52 747.073 1973.02 743.095 1974.18 739.117C1975.34 735.14 1977.41 731.493 1980.39 728.178C1983.38 724.863 1987.19 722.212 1991.83 720.223C1999.45 717.239 2006.5 716.908 2012.96 719.228C2019.43 721.549 2023.49 724.532 2025.14 728.178L2044.54 771.935Z" fill="#000000" fill-rule="evenodd" opacity="1" stroke="none"/>
</g>
</svg>
